<svg width="64" height="64" viewBox="0 0 64 64" fill="none" xmlns="http://www.w3.org/2000/svg">
  <defs>
    <linearGradient id="bg" x1="0" y1="0" x2="0" y2="1">
      <stop offset="0%" stop-color="#a78cec" />
      <stop offset="100%" stop-color="#7c5fd8" />
    </linearGradient>
  </defs>
  <rect width="64" height="64" rx="15" fill="url(#bg)" />
  <g transform="translate(5.6, 16.6) scale(0.44)">
    <path
      d="M14 14 C 8 14, 4 22, 4 32 C 4 46, 14 56, 28 56 L 50 56 C 56 56, 58 50, 60 50 C 62 50, 64 56, 70 56 L 92 56 C 106 56, 116 46, 116 32 C 116 22, 112 14, 106 14 C 96 14, 86 18, 78 22 C 72 25, 66 26, 60 26 C 54 26, 48 25, 42 22 C 34 18, 24 14, 14 14 Z"
      fill="#ffffff"
    />
    <ellipse cx="32" cy="34" rx="9" ry="6" fill="#7c5fd8" />
    <ellipse cx="88" cy="34" rx="9" ry="6" fill="#7c5fd8" />
  </g>
</svg>
